<svg id="svg" version="1.1" xmlns="http://www.w3.org/2000/svg" xmlns:xlink="http://www.w3.org/1999/xlink" width="400" height="368.125" viewBox="0, 0, 400,368.125"><g id="svgg"><path id="path0" d="M0.000 183.359 L 0.000 366.719 200.000 366.719 L 400.000 366.719 400.000 183.359 L 400.000 0.000 200.000 0.000 L 0.000 0.000 0.000 183.359 M209.531 89.212 C 226.530 91.122,240.103 97.757,252.344 110.139 C 257.714 115.571,263.276 124.139,264.512 128.882 C 264.775 129.892,265.259 131.437,265.588 132.315 C 266.448 134.614,267.720 140.587,268.124 144.219 C 268.850 150.746,268.369 223.353,267.576 226.875 C 265.070 238.014,260.775 246.043,252.451 255.150 C 248.168 259.837,239.093 266.447,234.671 268.100 C 233.716 268.457,232.458 269.101,231.876 269.531 C 227.285 272.918,212.203 276.389,202.841 276.213 C 200.333 276.165,197.964 276.235,197.575 276.367 C 193.945 277.600,176.140 273.155,167.431 268.842 C 158.558 264.447,143.750 252.621,143.750 249.929 C 143.750 249.594,141.598 246.128,138.778 241.921 C 137.195 239.559,136.564 238.366,136.563 237.734 C 136.562 236.280,138.553 238.385,138.893 240.198 C 139.317 242.456,142.468 247.533,144.579 249.359 C 145.240 249.931,146.906 251.641,148.281 253.159 C 159.576 265.629,179.048 274.034,199.063 275.080 C 201.415 275.203,215.272 273.235,219.304 272.206 C 239.511 267.046,256.939 252.087,263.380 234.375 C 266.625 225.452,266.550 226.659,266.557 182.889 C 266.563 142.589,266.554 142.334,264.965 136.563 C 264.610 135.273,264.204 133.423,264.063 132.451 C 263.897 131.314,263.378 129.951,262.606 128.630 C 261.946 127.500,260.524 124.991,259.445 123.054 C 250.559 107.099,235.133 96.012,216.307 92.053 C 211.141 90.966,202.781 89.849,200.469 89.937 C 199.438 89.976,197.328 90.057,195.781 90.117 C 172.863 91.008,148.750 105.883,138.984 125.156 C 138.549 126.016,137.896 126.987,137.534 127.314 C 135.562 129.096,138.089 123.093,141.303 118.360 C 155.566 97.356,181.897 86.108,209.531 89.212 M195.636 102.357 C 196.226 103.068,195.773 103.318,192.813 103.911 C 188.912 104.692,188.976 104.633,189.112 107.329 C 189.280 110.654,189.404 110.744,193.463 110.481 C 197.760 110.202,198.752 111.296,194.988 112.163 C 190.647 113.164,188.396 112.159,187.951 109.024 C 187.844 108.272,187.618 107.199,187.448 106.641 C 187.055 105.348,187.593 103.596,188.581 102.948 C 190.132 101.932,194.948 101.529,195.636 102.357 M214.081 102.978 C 215.327 103.623,215.428 104.292,214.841 108.032 C 214.037 113.161,213.257 114.131,211.852 111.749 C 211.180 110.612,210.798 110.449,208.046 110.125 C 206.356 109.926,206.258 109.954,205.907 110.722 C 205.323 112.006,203.750 111.880,203.750 110.550 C 203.750 107.871,205.132 104.088,206.418 103.245 C 208.116 102.132,212.172 101.991,214.081 102.978 M207.369 105.036 C 205.268 106.688,206.982 108.356,210.838 108.413 C 212.555 108.439,212.500 108.489,212.944 106.489 C 213.390 104.486,209.393 103.444,207.369 105.036 M178.345 106.641 C 179.986 108.441,179.936 111.544,178.248 112.649 C 177.513 113.131,177.457 113.309,177.644 114.561 C 177.926 116.438,177.142 116.808,175.939 115.367 C 175.210 114.493,174.923 114.375,173.535 114.375 C 171.275 114.375,168.520 111.553,169.157 109.892 C 169.477 109.059,170.592 109.266,171.005 110.234 C 171.901 112.337,173.316 112.725,175.864 111.569 C 177.513 110.820,177.691 110.381,177.190 108.292 C 176.636 105.984,177.118 105.295,178.345 106.641 M229.219 108.019 C 232.106 109.457,233.125 110.441,233.125 111.793 C 233.125 113.958,231.372 115.938,229.455 115.938 C 228.299 115.938,228.198 116.448,228.910 118.672 C 229.183 119.524,228.146 119.685,227.488 118.892 C 226.811 118.076,224.407 113.014,224.570 112.749 C 224.828 112.333,225.797 112.467,227.231 113.118 C 230.280 114.502,232.677 112.473,230.078 110.709 C 226.823 108.500,224.375 109.121,224.375 112.156 C 224.375 112.498,224.095 112.859,223.745 112.970 C 223.398 113.080,222.828 113.732,222.478 114.417 C 221.784 115.778,220.854 115.972,220.685 114.792 C 220.574 114.018,223.450 108.112,224.401 107.161 C 225.213 106.350,226.231 106.531,229.219 108.019 M164.109 118.203 C 167.714 122.024,168.109 123.941,164.801 121.565 C 163.153 120.382,162.724 120.582,163.133 122.344 C 163.964 125.930,163.462 126.620,160.603 125.825 C 157.479 124.957,157.100 125.268,158.750 127.344 C 161.333 130.594,159.093 129.926,155.657 126.422 C 151.515 122.199,151.991 121.325,157.457 123.111 C 161.915 124.568,161.966 124.528,160.795 120.485 C 159.043 114.440,159.961 113.807,164.109 118.203 M244.440 118.984 C 248.354 122.786,248.923 125.282,245.383 123.124 C 243.851 122.190,243.526 122.309,241.049 124.710 C 237.047 128.591,235.472 127.015,239.352 123.014 C 241.764 120.526,241.855 120.291,240.938 118.906 C 238.821 115.711,241.123 115.762,244.440 118.984 M133.125 182.344 C 133.125 219.296,133.050 222.643,132.263 220.723 C 131.960 219.982,131.960 144.705,132.263 143.965 C 133.050 142.045,133.125 145.392,133.125 182.344 M185.912 149.886 C 187.198 150.143,189.572 155.859,198.013 179.021 C 200.075 184.679,200.744 184.465,202.814 177.486 C 203.468 175.281,209.056 159.757,211.444 153.512 C 212.934 149.617,212.837 149.688,216.693 149.688 C 220.725 149.688,220.830 149.780,221.294 153.702 C 221.618 156.439,221.539 157.484,220.745 161.016 C 220.455 162.306,221.134 162.077,221.870 160.635 C 222.217 159.954,222.774 159.251,223.105 159.073 C 223.963 158.614,229.468 158.656,229.937 159.125 C 230.480 159.668,230.480 205.332,229.937 205.875 C 229.345 206.467,225.792 206.359,225.273 205.733 C 224.920 205.307,224.844 201.942,224.844 186.753 C 224.844 165.272,225.005 166.134,221.980 171.475 C 219.724 175.455,219.531 175.999,220.034 176.939 C 220.565 177.931,220.797 212.697,220.277 213.324 C 219.738 213.974,216.779 213.886,216.180 213.203 C 215.415 212.330,214.921 193.226,215.502 186.926 C 215.732 184.430,214.790 183.679,213.871 185.625 C 212.395 188.749,211.073 191.228,209.373 194.063 C 208.290 195.867,206.570 198.891,205.551 200.781 C 203.060 205.401,202.831 205.625,200.595 205.625 C 197.797 205.625,195.701 203.105,192.197 195.531 C 191.545 194.122,190.387 192.125,189.624 191.094 C 188.861 190.063,187.578 188.081,186.774 186.691 L 185.313 184.164 185.313 180.076 C 185.313 174.192,185.570 173.825,187.386 177.109 C 195.283 191.394,198.588 197.038,199.491 197.782 C 200.153 198.327,201.678 197.048,202.411 195.332 C 202.663 194.742,203.197 193.828,203.597 193.301 C 203.997 192.775,204.826 191.241,205.439 189.892 C 206.052 188.544,207.172 186.505,207.927 185.361 C 208.682 184.217,209.617 182.648,210.004 181.875 C 210.391 181.102,211.087 179.977,211.550 179.375 C 212.406 178.262,214.394 174.749,216.028 171.462 C 216.870 169.768,216.895 169.615,216.394 169.249 C 215.942 168.918,215.825 168.091,215.663 164.062 C 215.535 160.898,215.347 159.229,215.111 159.151 C 214.725 159.023,213.352 162.361,211.805 167.188 C 210.686 170.678,209.693 173.346,209.187 174.219 C 208.987 174.563,208.729 175.266,208.612 175.781 C 208.495 176.297,207.724 178.406,206.900 180.469 C 206.075 182.531,204.807 185.859,204.082 187.864 C 202.382 192.566,202.312 192.656,200.349 192.656 C 198.156 192.656,198.128 192.612,195.015 184.340 C 185.057 157.878,185.407 158.750,184.760 158.750 C 184.353 158.750,184.129 190.373,184.448 202.813 C 184.719 213.413,184.750 213.276,182.085 213.279 L 180.156 213.281 179.963 210.938 C 179.856 209.648,179.751 200.258,179.728 190.070 L 179.688 171.547 178.918 171.254 C 178.495 171.093,177.811 170.427,177.398 169.773 C 175.165 166.236,175.177 166.147,175.000 186.938 C 174.886 200.320,174.745 205.380,174.479 205.646 C 173.965 206.160,170.756 206.191,170.251 205.688 C 169.456 204.894,169.509 160.178,170.307 159.381 C 171.064 158.623,176.044 158.443,176.951 159.141 C 178.117 160.038,179.061 162.519,179.108 164.812 L 179.154 167.031 179.387 165.156 C 179.515 164.125,179.635 160.654,179.654 157.442 C 179.689 151.393,179.884 150.155,180.842 149.906 C 181.720 149.679,184.814 149.666,185.912 149.886 M257.113 182.484 C 257.197 195.743,257.135 196.489,256.026 195.569 C 255.588 195.205,255.411 170.006,255.844 169.573 C 256.956 168.460,257.029 169.200,257.113 182.484 M145.873 182.813 C 145.782 194.745,145.646 196.306,144.796 195.144 C 144.237 194.379,144.174 171.271,144.729 170.236 C 145.785 168.262,145.968 170.275,145.873 182.813 M241.500 235.688 C 242.056 236.244,241.962 236.723,241.094 237.756 C 239.903 239.171,240.086 239.773,242.364 241.948 C 244.807 244.281,245.188 244.865,244.671 245.489 C 244.081 246.200,243.853 246.073,241.250 243.594 C 238.482 240.957,238.444 240.944,236.836 242.058 C 233.338 244.482,233.626 241.879,237.257 238.247 C 240.171 235.334,240.779 234.967,241.500 235.688 M159.626 236.914 C 159.678 237.535,159.502 238.984,159.235 240.134 C 158.241 244.420,158.391 244.569,162.410 243.285 C 167.901 241.532,168.240 242.665,163.645 247.422 C 160.946 250.217,158.764 250.348,160.938 247.585 C 162.226 245.947,161.605 245.505,158.951 246.170 C 156.395 246.811,156.028 246.443,156.485 243.692 C 156.917 241.093,156.536 240.585,155.004 241.716 C 153.869 242.553,153.279 242.690,152.969 242.188 C 152.708 241.766,153.204 241.109,156.035 238.126 C 158.719 235.299,159.469 235.045,159.626 236.914 M229.597 246.188 C 230.680 246.875,231.260 250.050,230.613 251.749 C 230.219 252.786,230.511 253.149,232.097 253.594 C 233.511 253.991,233.747 254.585,232.655 255.000 C 231.933 255.275,228.607 254.867,226.016 254.185 C 225.042 253.929,225.658 252.806,227.199 252.025 C 229.033 251.096,229.656 250.084,229.119 248.906 C 228.647 247.869,227.506 247.884,225.652 248.950 C 222.613 250.698,222.597 250.785,224.560 254.678 C 225.960 257.454,226.123 258.438,225.181 258.438 C 224.286 258.438,220.625 252.160,220.625 250.626 C 220.625 248.686,227.880 245.096,229.597 246.188 M173.655 249.293 C 172.895 251.414,172.970 251.783,174.297 252.459 C 177.222 253.947,178.797 253.836,179.527 252.089 C 180.338 250.148,181.568 249.793,181.557 251.503 C 181.543 253.803,179.593 255.613,177.122 255.620 C 175.686 255.625,175.418 255.770,174.566 257.004 C 173.842 258.052,173.032 257.415,173.273 255.989 C 173.452 254.928,173.348 254.639,172.362 253.460 C 171.039 251.876,170.923 250.621,171.917 248.659 C 173.203 246.122,174.608 246.634,173.655 249.293 M213.257 252.065 C 214.093 252.386,215.708 260.080,215.212 261.375 C 214.917 262.142,213.884 261.969,213.282 261.051 C 212.223 259.435,207.027 260.301,206.815 262.130 C 206.684 263.260,205.799 263.368,205.123 262.337 C 203.744 260.232,204.234 255.387,205.974 253.923 C 207.374 252.746,211.972 251.572,213.257 252.065 M194.789 252.855 C 196.731 253.245,197.530 253.845,196.921 254.454 C 196.535 254.840,195.173 254.860,191.948 254.527 L 189.989 254.324 189.526 255.433 C 188.956 256.797,188.909 260.112,189.453 260.551 C 189.668 260.724,191.024 261.023,192.467 261.214 C 195.682 261.640,196.774 262.343,195.379 263.089 C 194.655 263.477,189.844 262.910,188.659 262.297 C 187.341 261.615,187.092 260.592,187.499 257.533 C 188.153 252.614,189.448 251.783,194.789 252.855 M208.913 254.482 C 206.906 255.092,205.710 257.228,206.777 258.295 C 207.679 259.197,212.338 258.351,212.576 257.241 C 212.683 256.742,212.358 254.742,212.137 254.543 C 211.754 254.198,209.958 254.164,208.913 254.482 " stroke="none" fill="#2d4525" fill-rule="evenodd"></path><path id="path1" d="M190.156 89.107 C 173.330 91.243,154.868 101.207,144.995 113.481 C 140.727 118.787,136.875 125.214,136.875 127.028 C 136.875 128.247,137.862 127.371,138.984 125.156 C 148.750 105.883,172.863 91.008,195.781 90.117 C 197.328 90.057,199.438 89.976,200.469 89.937 C 202.781 89.849,211.141 90.966,216.307 92.053 C 235.133 96.012,250.559 107.099,259.445 123.054 C 260.524 124.991,261.946 127.500,262.606 128.630 C 263.378 129.951,263.897 131.314,264.063 132.451 C 264.204 133.423,264.610 135.273,264.965 136.563 C 266.554 142.334,266.563 142.589,266.557 182.889 C 266.550 226.659,266.625 225.452,263.380 234.375 C 256.939 252.087,239.511 267.046,219.304 272.206 C 215.272 273.235,201.415 275.203,199.063 275.080 C 179.048 274.034,159.576 265.629,148.281 253.159 C 146.906 251.641,145.240 249.931,144.579 249.359 C 142.468 247.533,139.317 242.456,138.893 240.198 C 138.553 238.385,136.562 236.280,136.563 237.734 C 136.564 238.366,137.195 239.559,138.778 241.921 C 141.598 246.128,143.750 249.594,143.750 249.929 C 143.750 252.621,158.558 264.447,167.431 268.842 C 176.140 273.155,193.945 277.600,197.575 276.367 C 197.964 276.235,200.333 276.165,202.841 276.213 C 212.203 276.389,227.285 272.918,231.876 269.531 C 232.458 269.101,233.716 268.457,234.671 268.100 C 239.093 266.447,248.168 259.837,252.451 255.150 C 260.775 246.043,265.070 238.014,267.576 226.875 C 268.369 223.353,268.850 150.746,268.124 144.219 C 267.720 140.587,266.448 134.614,265.588 132.315 C 265.259 131.437,264.775 129.892,264.512 128.882 C 261.711 118.128,247.390 103.107,233.092 95.925 C 221.588 90.146,203.986 87.351,190.156 89.107 M190.663 102.212 C 188.035 102.729,186.783 104.453,187.448 106.641 C 187.618 107.199,187.844 108.272,187.951 109.024 C 188.396 112.159,190.647 113.164,194.988 112.163 C 198.752 111.296,197.760 110.202,193.463 110.481 C 189.404 110.744,189.280 110.654,189.112 107.329 C 188.976 104.633,188.912 104.692,192.813 103.911 C 195.773 103.318,196.226 103.068,195.636 102.357 C 195.191 101.820,192.985 101.756,190.663 102.212 M208.211 102.473 C 205.565 103.148,203.750 106.435,203.750 110.550 C 203.750 111.880,205.323 112.006,205.907 110.722 C 206.258 109.954,206.356 109.926,208.046 110.125 C 210.798 110.449,211.180 110.612,211.852 111.749 C 212.597 113.013,213.629 113.170,214.043 112.083 C 214.524 110.816,215.371 104.739,215.159 104.071 C 214.743 102.760,210.717 101.834,208.211 102.473 M212.505 105.005 C 213.119 105.619,213.131 105.955,212.606 107.891 C 212.219 109.319,206.774 108.206,206.624 106.669 C 206.421 104.598,210.846 103.346,212.505 105.005 M177.009 106.287 C 176.890 106.479,176.972 107.381,177.190 108.292 C 177.691 110.381,177.513 110.820,175.864 111.569 C 173.316 112.725,171.901 112.337,171.005 110.234 C 170.592 109.266,169.477 109.059,169.157 109.892 C 168.520 111.553,171.275 114.375,173.535 114.375 C 174.923 114.375,175.210 114.493,175.939 115.367 C 177.142 116.808,177.926 116.438,177.644 114.561 C 177.457 113.309,177.513 113.131,178.248 112.649 C 179.936 111.544,179.986 108.441,178.345 106.641 C 177.628 105.854,177.325 105.774,177.009 106.287 M224.401 107.161 C 223.450 108.112,220.574 114.018,220.685 114.792 C 220.854 115.972,221.784 115.778,222.478 114.417 C 222.828 113.732,223.398 113.080,223.745 112.970 C 224.095 112.859,224.375 112.498,224.375 112.156 C 224.375 109.121,226.823 108.500,230.078 110.709 C 232.677 112.473,230.280 114.502,227.231 113.118 C 225.797 112.467,224.828 112.333,224.570 112.749 C 224.407 113.014,226.811 118.076,227.488 118.892 C 228.146 119.685,229.183 119.524,228.910 118.672 C 228.198 116.448,228.299 115.938,229.455 115.938 C 231.372 115.938,233.125 113.958,233.125 111.793 C 233.125 109.347,225.999 105.564,224.401 107.161 M160.208 115.521 C 159.795 115.934,160.015 117.794,160.795 120.485 C 161.966 124.528,161.915 124.568,157.457 123.111 C 151.991 121.325,151.515 122.199,155.657 126.422 C 159.093 129.926,161.333 130.594,158.750 127.344 C 157.100 125.268,157.479 124.957,160.603 125.825 C 163.462 126.620,163.964 125.930,163.133 122.344 C 162.724 120.582,163.153 120.382,164.801 121.565 C 168.109 123.941,167.714 122.024,164.109 118.203 C 161.596 115.540,160.762 114.967,160.208 115.521 M240.315 117.266 C 240.316 117.652,240.596 118.391,240.938 118.906 C 241.855 120.291,241.764 120.526,239.352 123.014 C 235.472 127.015,237.047 128.591,241.049 124.710 C 243.526 122.309,243.851 122.190,245.383 123.124 C 247.198 124.230,248.186 123.811,247.386 122.275 C 245.815 119.256,240.309 115.356,240.315 117.266 M132.263 143.965 C 131.960 144.705,131.960 219.982,132.263 220.723 C 133.050 222.643,133.125 219.296,133.125 182.344 C 133.125 145.392,133.050 142.045,132.263 143.965 M180.842 149.906 C 179.884 150.155,179.689 151.393,179.654 157.442 C 179.635 160.654,179.515 164.125,179.387 165.156 L 179.154 167.031 179.108 164.812 C 179.061 162.519,178.117 160.038,176.951 159.141 C 176.044 158.443,171.064 158.623,170.307 159.381 C 169.509 160.178,169.456 204.894,170.251 205.688 C 170.756 206.191,173.965 206.160,174.479 205.646 C 174.745 205.380,174.886 200.320,175.000 186.938 C 175.177 166.147,175.165 166.236,177.398 169.773 C 177.811 170.427,178.495 171.093,178.918 171.254 L 179.688 171.547 179.728 190.070 C 179.751 200.258,179.856 209.648,179.963 210.938 L 180.156 213.281 182.085 213.279 C 184.750 213.276,184.719 213.413,184.448 202.813 C 184.129 190.373,184.353 158.750,184.760 158.750 C 185.407 158.750,185.057 157.878,195.015 184.340 C 198.128 192.612,198.156 192.656,200.349 192.656 C 202.312 192.656,202.382 192.566,204.082 187.864 C 204.807 185.859,206.075 182.531,206.900 180.469 C 207.724 178.406,208.495 176.297,208.612 175.781 C 208.729 175.266,208.987 174.563,209.187 174.219 C 209.693 173.346,210.686 170.678,211.805 167.188 C 213.352 162.361,214.725 159.023,215.111 159.151 C 215.347 159.229,215.535 160.898,215.663 164.062 C 215.825 168.091,215.942 168.918,216.394 169.249 C 216.895 169.615,216.870 169.768,216.028 171.462 C 214.394 174.749,212.406 178.262,211.550 179.375 C 211.087 179.977,210.391 181.102,210.004 181.875 C 209.617 182.648,208.682 184.217,207.927 185.361 C 207.172 186.505,206.052 188.544,205.439 189.892 C 204.826 191.241,203.997 192.775,203.597 193.301 C 203.197 193.828,202.663 194.742,202.411 195.332 C 201.678 197.048,200.153 198.327,199.491 197.782 C 198.588 197.038,195.283 191.394,187.386 177.109 C 185.570 173.825,185.313 174.192,185.313 180.076 L 185.313 184.164 186.774 186.691 C 187.578 188.081,188.861 190.063,189.624 191.094 C 190.387 192.125,191.545 194.122,192.197 195.531 C 195.701 203.105,197.797 205.625,200.595 205.625 C 202.831 205.625,203.060 205.401,205.551 200.781 C 206.570 198.891,208.290 195.867,209.373 194.063 C 211.073 191.228,212.395 188.749,213.871 185.625 C 214.790 183.679,215.732 184.430,215.502 186.926 C 214.921 193.226,215.415 212.330,216.180 213.203 C 216.779 213.886,219.738 213.974,220.277 213.324 C 220.797 212.697,220.565 177.931,220.034 176.939 C 219.531 175.999,219.724 175.455,221.980 171.475 C 225.005 166.134,224.844 165.272,224.844 186.753 C 224.844 201.942,224.920 205.307,225.273 205.733 C 225.792 206.359,229.345 206.467,229.937 205.875 C 230.480 205.332,230.480 159.668,229.937 159.125 C 229.468 158.656,223.963 158.614,223.105 159.073 C 222.774 159.251,222.217 159.954,221.870 160.635 C 221.134 162.077,220.455 162.306,220.745 161.016 C 221.539 157.484,221.618 156.439,221.294 153.702 C 220.830 149.780,220.725 149.688,216.693 149.688 C 212.837 149.688,212.934 149.617,211.444 153.512 C 209.056 159.757,203.468 175.281,202.814 177.486 C 200.744 184.465,200.075 184.679,198.013 179.021 C 195.444 171.971,187.761 151.745,187.352 150.954 C 186.764 149.816,183.324 149.263,180.842 149.906 M255.844 169.573 C 255.411 170.006,255.588 195.205,256.026 195.569 C 257.135 196.489,257.197 195.743,257.113 182.484 C 257.029 169.200,256.956 168.460,255.844 169.573 M144.729 170.236 C 144.174 171.271,144.237 194.379,144.796 195.144 C 145.646 196.306,145.782 194.745,145.873 182.813 C 145.968 170.275,145.785 168.262,144.729 170.236 M237.257 238.247 C 233.626 241.879,233.338 244.482,236.836 242.058 C 238.444 240.944,238.482 240.957,241.250 243.594 C 243.853 246.073,244.081 246.200,244.671 245.489 C 245.188 244.865,244.807 244.281,242.364 241.948 C 240.086 239.773,239.903 239.171,241.094 237.756 C 241.962 236.723,242.056 236.244,241.500 235.688 C 240.779 234.967,240.171 235.334,237.257 238.247 M156.035 238.126 C 153.204 241.109,152.708 241.766,152.969 242.188 C 153.279 242.690,153.869 242.553,155.004 241.716 C 156.536 240.585,156.917 241.093,156.485 243.692 C 156.028 246.443,156.395 246.811,158.951 246.170 C 161.605 245.505,162.226 245.947,160.938 247.585 C 158.764 250.348,160.946 250.217,163.645 247.422 C 168.240 242.665,167.901 241.532,162.410 243.285 C 158.391 244.569,158.241 244.420,159.235 240.134 C 160.397 235.126,159.448 234.531,156.035 238.126 M224.467 247.378 C 221.114 249.136,220.625 249.549,220.625 250.626 C 220.625 252.160,224.286 258.438,225.181 258.438 C 226.123 258.438,225.960 257.454,224.560 254.678 C 222.597 250.785,222.613 250.698,225.652 248.950 C 227.506 247.884,228.647 247.869,229.119 248.906 C 229.656 250.084,229.033 251.096,227.199 252.025 C 225.658 252.806,225.042 253.929,226.016 254.185 C 228.607 254.867,231.933 255.275,232.655 255.000 C 233.747 254.585,233.511 253.991,232.097 253.594 C 230.511 253.149,230.219 252.786,230.613 251.749 C 231.260 250.050,230.680 246.875,229.597 246.188 C 228.712 245.625,227.095 246.000,224.467 247.378 M172.933 247.121 C 171.155 248.258,170.850 251.649,172.362 253.460 C 173.348 254.639,173.452 254.928,173.273 255.989 C 173.032 257.415,173.842 258.052,174.566 257.004 C 175.418 255.770,175.686 255.625,177.122 255.620 C 179.593 255.613,181.543 253.803,181.557 251.503 C 181.568 249.793,180.338 250.148,179.527 252.089 C 178.797 253.836,177.222 253.947,174.297 252.459 C 172.970 251.783,172.895 251.414,173.655 249.293 C 174.211 247.743,173.816 246.556,172.933 247.121 M210.938 252.097 C 205.683 253.018,204.182 254.621,204.438 259.041 C 204.636 262.453,206.497 264.872,206.815 262.130 C 207.027 260.301,212.223 259.435,213.282 261.051 C 215.264 264.077,215.819 259.721,214.197 253.862 C 213.657 251.911,213.252 251.691,210.938 252.097 M189.469 252.816 C 187.153 253.749,186.518 261.189,188.659 262.297 C 189.844 262.910,194.655 263.477,195.379 263.089 C 196.774 262.343,195.682 261.640,192.467 261.214 C 191.024 261.023,189.668 260.724,189.453 260.551 C 188.909 260.112,188.956 256.797,189.526 255.433 L 189.989 254.324 191.948 254.527 C 196.374 254.984,197.817 254.729,196.921 253.650 C 196.178 252.754,191.048 252.180,189.469 252.816 M212.137 254.543 C 212.358 254.742,212.683 256.742,212.576 257.241 C 212.338 258.351,207.679 259.197,206.777 258.295 C 204.905 256.422,210.148 252.752,212.137 254.543 M0.391 366.769 C 0.176 366.856,0.000 367.197,0.000 367.526 C 0.000 368.116,3.107 368.125,200.000 368.125 C 396.024 368.125,400.000 368.113,400.000 367.533 C 400.000 367.208,399.778 366.857,399.506 366.752 C 398.914 366.525,0.953 366.542,0.391 366.769 " stroke="none" fill="#8ccc5d" fill-rule="evenodd"></path></g></svg>